/* XPM */
static char *sample[] = {
"32 32 6 1 0 0",
"  c #000000",
"! c #000080",
"# c #FFFFFF",
"$ c #FFFF00",
"% c #FF0000",
"& c None",
"&&&&&&&&&&&&&&&&&&&&&&&&&&&&&&&&",
"&&&&&&&&&&&&&&&&&&&&&&&&&&&&&&&&",
"&&&&&&&&&&&&&&&&&&&&&&&&&&&&&&&&",
"&&&&&&&&&&&&&&&&&&&&&&&&&&&&&&&&",
"&&&&&&&&&&&&&&&&&&&&&&&&&&&&&&&&",
"&&&&&&&&              &&&&&&&&&&",
"&&&&&&&& !!!!!!!!!!!! &&&&&&&&&&",
"&&&&&&&& !!!!!!!!!!!! &&&&&&&&&&",
"&&&&&&&& !##!!!!!!!!! &&&&&&&&&&",
"&&&&&&&& !##!!!!!!!!! &&&&&&&&&&",
"&&&&&&&& !##!!!!!!!!! &&&&&&&&&&",
"&&&&&&&& !##!!!!!!              ",
"&&&&&&&& !##!!!!!! $$$$$$$$$$$$ ",
"         !##!!!!!! $$$$$$$$$$$$ ",
" %%%%%%% !##!!!!!! $##$$$$$$$$$ ",
" %%%%%%% !##!!!!!! $##$$$$$$$$$ ",
" %##%%%% !!!!!!!!! $##$$$$$$$$$ ",
" %##%%%% !!!!!!!!! $##$$$$$$$$$ ",
" %##%%%%           $##$$$$$$$$$ ",
" %##%%%%%%%%% &&&& $##$$$$$$$$$ ",
" %##%%%%%%%%% &&&& $##$$$$$$$$$ ",
" %##%%%%%%%%% &&&& $##$$$$$$$$$ ",
" %##%%%%%%%%% &&&& $$$$$$$$$$$$ ",
" %##%%%%%%%%% &&&& $$$$$$$$$$$$ ",
" %%%%%%%%%%%% &&&&              ",
" %%%%%%%%%%%% &&&&&&&&&&&&&&&&&&",
"              &&&&&&&&&&&&&&&&&&",
"&&&&&&&&&&&&&&&&&&&&&&&&&&&&&&&&",
"&&&&&&&&&&&&&&&&&&&&&&&&&&&&&&&&",
"&&&&&&&&&&&&&&&&&&&&&&&&&&&&&&&&",
"&&&&&&&&&&&&&&&&&&&&&&&&&&&&&&&&",
"&&&&&&&&&&&&&&&&&&&&&&&&&&&&&&&&"
};
