/* XPM */
static char * outArrow16x16_xpm[] = {
"16 16 4 1",
" 	c None",
".	c #C0C0C0",
"+	c #808080",
"@	c #000000",
"                ",
"                ",
"         .      ",
"         ..     ",
"         ...    ",
"         ....   ",
"..............  ",
"+.............. ",
"+++.............",
"++++@@@@@@@@@@@@",
"+++@@@@@@@@@@@@@",
"++@@@@@@@@@@@@@ ",
"          @@@@  ",
"          @@@   ",
"          @@    ",
"          @     "};
